<svg width="22" height="22" viewBox="0 0 22 22" fill="none" xmlns="http://www.w3.org/2000/svg">
<path d="M17.476 4.98325C17.7303 4.98325 17.9364 4.77713 17.9364 4.52288C17.9364 4.26861 17.7303 4.0625 17.476 4.0625C17.2218 4.0625 17.0156 4.26861 17.0156 4.52288C17.0156 4.77713 17.2218 4.98325 17.476 4.98325Z" fill="#8C87D1"/>
<path d="M18.3969 8.6981C18.6512 8.6981 18.8572 8.49198 18.8572 8.23772C18.8572 7.98346 18.6512 7.77734 18.3969 7.77734C18.1426 7.77734 17.9365 7.98346 17.9365 8.23772C17.9365 8.49198 18.1426 8.6981 18.3969 8.6981Z" fill="#8C87D1"/>
<path d="M11.0304 18.8588C14.3862 18.8588 17.3638 16.6898 18.4401 13.5076C18.5058 13.3139 18.4352 13.0999 18.2674 12.9826C18.1002 12.8662 17.875 12.8733 17.7149 13.0019C16.7227 13.8017 15.5254 14.2243 14.2531 14.2243C11.2066 14.2243 8.69783 11.7462 8.69783 8.69978C8.69783 6.79488 9.69558 5.01708 11.3159 3.99605C11.4894 3.88678 11.5497 3.67504 11.4926 3.47812C11.436 3.2812 11.2354 3.14453 11.0304 3.14453C6.71482 3.14453 3.14258 6.68607 3.14258 11.0017C3.14258 15.3172 6.71482 18.8588 11.0304 18.8588Z" fill="#8C87D1"/>
<path d="M11.9516 6.85546C12.7132 6.85546 13.3327 7.47501 13.3327 8.23661C13.3327 8.49107 13.5387 8.69698 13.7931 8.69698C14.0476 8.69698 14.2535 8.49107 14.2535 8.23661C14.2535 7.47501 14.8731 6.85546 15.6346 6.85546C15.8891 6.85546 16.095 6.64955 16.095 6.39509C16.095 6.14062 15.8891 5.93471 15.6346 5.93471C14.8731 5.93471 14.2535 5.28446 14.2535 4.52288C14.2535 4.26841 14.0476 4.0625 13.7931 4.0625C13.5387 4.0625 13.3327 4.26841 13.3327 4.52288C13.3327 5.28446 12.7132 5.93471 11.9516 5.93471C11.6971 5.93471 11.4912 6.14062 11.4912 6.39509C11.4912 6.64955 11.6971 6.85546 11.9516 6.85546Z" fill="#8C87D1"/>
</svg>
