<svg width="21" height="20" viewBox="0 0 21 20" fill="none" xmlns="http://www.w3.org/2000/svg">
<path d="M17.1687 2.5H3.83125C3.61129 2.50164 3.40081 2.58974 3.24527 2.74527C3.08974 2.90081 3.00164 3.11129 3 3.33125V16.6687C3.00164 16.8887 3.08974 17.0992 3.24527 17.2547C3.40081 17.4103 3.61129 17.4984 3.83125 17.5H11.0125V11.7H9.0625V9.43125H11.0125V7.7625C11.0125 5.825 12.1937 4.76875 13.9312 4.76875C14.5125 4.76875 15.0938 4.76875 15.675 4.85625V6.875H14.4813C13.5375 6.875 13.3562 7.325 13.3562 7.98125V9.425H15.6062L15.3125 11.6937H13.3562V17.5H17.1687C17.3887 17.4984 17.5992 17.4103 17.7547 17.2547C17.9103 17.0992 17.9984 16.8887 18 16.6687V3.33125C17.9984 3.11129 17.9103 2.90081 17.7547 2.74527C17.5992 2.58974 17.3887 2.50164 17.1687 2.5Z" fill="#564FB1"/>
</svg>
