<svg width="24" height="24" viewBox="0 0 24 24" fill="none" xmlns="http://www.w3.org/2000/svg">
<path d="M3 5.45645V3.5C3 2.67157 3.67157 2 4.5 2H19.5C20.3284 2 21 2.67157 21 3.5V5.45645C21 6.11829 20.7086 6.74656 20.2034 7.17407L14.677 11.8502C14.5648 11.9452 14.5 12.0848 14.5 12.2319V18.7169C14.5 18.8925 14.4079 19.0553 14.2572 19.1457L10.2572 21.5457C9.92399 21.7456 9.5 21.5056 9.5 21.1169V12.2319C9.5 12.0848 9.43525 11.9452 9.32297 11.8502L3.79663 7.17407C3.29139 6.74656 3 6.11829 3 5.45645Z" stroke="white" stroke-width="1.5"/>
</svg>
