<svg width="21" height="20" viewBox="0 0 21 20" fill="none" xmlns="http://www.w3.org/2000/svg">
<path d="M14.5037 6.89652C15.0007 6.89652 15.4037 6.49358 15.4037 5.99652C15.4037 5.49947 15.0007 5.09652 14.5037 5.09652C14.0066 5.09652 13.6037 5.49947 13.6037 5.99652C13.6037 6.49358 14.0066 6.89652 14.5037 6.89652Z" fill="#564FB1"/>
<path d="M10.5004 6.14861C9.73866 6.14861 8.99403 6.37449 8.36068 6.79768C7.72732 7.22087 7.23368 7.82238 6.94218 8.52612C6.65068 9.22987 6.57441 10.0043 6.72302 10.7513C6.87162 11.4984 7.23843 12.1847 7.77705 12.7233C8.31568 13.2619 9.00193 13.6287 9.74902 13.7774C10.4961 13.926 11.2705 13.8497 11.9742 13.5582C12.678 13.2667 13.2795 12.773 13.7027 12.1397C14.1259 11.5063 14.3518 10.7617 14.3518 9.99998C14.3518 8.97853 13.946 7.99892 13.2237 7.27665C12.5014 6.55437 11.5218 6.14861 10.5004 6.14861ZM10.5004 12.5C10.0059 12.5 9.52258 12.3534 9.11146 12.0787C8.70034 11.804 8.37991 11.4135 8.19069 10.9567C8.00147 10.4999 7.95196 9.99721 8.04842 9.51226C8.14489 9.0273 8.38299 8.58185 8.73262 8.23221C9.08225 7.88258 9.52771 7.64448 10.0127 7.54802C10.4976 7.45155 11.0003 7.50106 11.4571 7.69028C11.9139 7.8795 12.3044 8.19993 12.5791 8.61106C12.8538 9.02218 13.0004 9.50553 13.0004 9.99998C13.0004 10.663 12.737 11.2989 12.2682 11.7677C11.7993 12.2366 11.1634 12.5 10.5004 12.5Z" fill="#564FB1"/>
<path d="M10.5 3.85137C12.5026 3.85137 12.7398 3.859 13.5306 3.89513C14.0062 3.90079 14.4773 3.98814 14.9233 4.15338C15.2467 4.27818 15.5405 4.4693 15.7856 4.71444C16.0308 4.95958 16.2219 5.25331 16.3467 5.57675C16.5119 6.02276 16.5993 6.49384 16.6049 6.96944C16.641 7.76025 16.6487 7.9975 16.6487 10.0001C16.6487 12.0026 16.6411 12.2399 16.6049 13.0307C16.5993 13.5063 16.5119 13.9774 16.3467 14.4234C16.2219 14.7468 16.0308 15.0405 15.7856 15.2857C15.5405 15.5308 15.2467 15.7219 14.9233 15.8467C14.4773 16.012 14.0062 16.0993 13.5306 16.105C12.7399 16.1411 12.5027 16.1487 10.5 16.1487C8.49725 16.1487 8.26012 16.1411 7.46937 16.105C6.99378 16.0993 6.52269 16.012 6.07669 15.8467C5.75325 15.7219 5.45951 15.5308 5.21437 15.2857C4.96923 15.0405 4.77812 14.7468 4.65331 14.4234C4.48808 13.9774 4.40072 13.5063 4.39506 13.0307C4.359 12.2399 4.35131 12.0026 4.35131 10.0001C4.35131 7.9975 4.35894 7.76025 4.39506 6.96944C4.40072 6.49384 4.48808 6.02276 4.65331 5.57675C4.77811 5.2533 4.96922 4.95955 5.21436 4.7144C5.45951 4.46925 5.75324 4.27812 6.07669 4.15331C6.52269 3.98808 6.99378 3.90072 7.46937 3.89506C8.26019 3.859 8.49744 3.85137 10.5 3.85137ZM10.5 2.5C8.46312 2.5 8.20769 2.50862 7.40775 2.54512C6.78566 2.55761 6.17018 2.67549 5.5875 2.89375C5.08921 3.08645 4.63667 3.38112 4.2589 3.7589C3.88112 4.13667 3.58645 4.58921 3.39375 5.0875C3.17546 5.67028 3.05758 6.28586 3.04512 6.90806C3.00862 7.70769 3 7.96312 3 10C3 12.0369 3.00862 12.2923 3.04512 13.0922C3.05759 13.7144 3.17547 14.33 3.39375 14.9128C3.58645 15.4111 3.88112 15.8636 4.2589 16.2414C4.63667 16.6192 5.08921 16.9139 5.5875 17.1066C6.17028 17.3249 6.78586 17.4427 7.40806 17.4552C8.20769 17.4914 8.46312 17.5 10.5 17.5C12.5369 17.5 12.7923 17.4914 13.5922 17.4549C14.2144 17.4424 14.83 17.3245 15.4128 17.1062C15.9111 16.9136 16.3636 16.6189 16.7414 16.2411C17.1192 15.8633 17.4139 15.4108 17.6066 14.9125C17.8248 14.3297 17.9427 13.7141 17.9552 13.0919C17.9914 12.2923 18 12.0369 18 10C18 7.96312 17.9914 7.70769 17.9549 6.90775C17.9424 6.28566 17.8245 5.67018 17.6062 5.0875C17.4135 4.58927 17.1188 4.13679 16.7411 3.75907C16.3633 3.38135 15.9108 3.08672 15.4125 2.89406C14.8297 2.67578 14.2141 2.5579 13.5919 2.54544C12.7923 2.50863 12.5369 2.5 10.5 2.5Z" fill="#564FB1"/>
</svg>
