<svg width="21" height="20" viewBox="0 0 21 20" fill="none" xmlns="http://www.w3.org/2000/svg">
<path d="M16.875 2.5H4.125C3.5 2.5 3 3 3 3.5625V16.375C3 16.9375 3.5 17.4375 4.125 17.4375H16.875C17.5 17.4375 18 16.9375 18 16.375V3.5625C18 3 17.5 2.5 16.875 2.5ZM7.4375 15.25H5.25V8.125H7.4375V15.25ZM6.375 7.125C5.6875 7.125 5.0625 6.5625 5.0625 5.8125C5.0625 5.0625 5.625 4.5 6.375 4.5C7.0625 4.5 7.6875 5.0625 7.6875 5.8125C7.6875 6.5625 7.0625 7.125 6.375 7.125ZM15.8125 15.1875H13.625V11.6875C13.625 10.875 13.625 9.75 12.4375 9.75C11.25 9.75 11.125 10.6875 11.125 11.5625V15.125H8.9375V8.125H11V9.0625H11.0625C11.375 8.5 12.125 7.875 13.1875 7.875C15.4375 7.875 15.875 9.375 15.875 11.3125V15.1875H15.8125Z" fill="#564FB1"/>
</svg>
