<svg width="25" height="24" viewBox="0 0 25 24" fill="none" xmlns="http://www.w3.org/2000/svg">
<g clip-path="url(#clip0_1_9330)">
<path d="M12.5111 1.625C16.603 1.625 20.4043 4.90179 20.4043 9.03571C20.4043 11.7682 19.4811 13.7001 17.934 15.9524C16.207 18.4667 14.0018 20.8338 13.016 21.8515C12.7316 22.1451 12.2674 22.1451 11.983 21.8515C10.9972 20.8338 8.79202 18.4667 7.06496 15.9524C5.51787 13.7001 4.59473 11.7682 4.59473 9.03571C4.59473 4.90179 8.39588 1.625 12.4878 1.625" stroke="black" stroke-width="1.5" stroke-linecap="round"/>
<path d="M15.4637 9.4732C15.4637 11.1264 14.1409 12.4937 12.5041 12.4937C10.8673 12.4937 9.53516 11.1264 9.53516 9.4732C9.53516 7.81998 10.8673 6.56627 12.5041 6.56627C14.1409 6.56627 15.4637 7.81998 15.4637 9.4732Z" stroke="black" stroke-width="1.5"/>
</g>
<defs>
<clipPath id="clip0_1_9330">
<rect width="24" height="24" fill="white" transform="translate(0.5)"/>
</clipPath>
</defs>
</svg>
