<svg width="21" height="20" viewBox="0 0 21 20" fill="none" xmlns="http://www.w3.org/2000/svg">
<path d="M7.95 15.5875C9.00571 15.5942 10.0522 15.3911 11.0289 14.9902C12.0055 14.5893 12.8928 13.9984 13.6393 13.2519C14.3858 12.5054 14.9767 11.6181 15.3777 10.6414C15.7786 9.66478 15.9816 8.61825 15.975 7.56254C15.975 7.43754 15.975 7.31879 15.975 7.19379C16.5222 6.79285 16.9959 6.30015 17.375 5.73754C16.8597 5.96291 16.3144 6.11238 15.7563 6.18129C16.3481 5.82865 16.7921 5.27358 17.0063 4.61879C16.4547 4.94969 15.8499 5.18231 15.2188 5.30629C14.7937 4.8534 14.2313 4.5532 13.6184 4.45216C13.0056 4.35111 12.3765 4.45485 11.8286 4.74732C11.2806 5.0398 10.8444 5.5047 10.5873 6.07009C10.3301 6.63548 10.2665 7.26985 10.4062 7.87504C9.28502 7.82001 8.18794 7.52943 7.18647 7.02223C6.185 6.51504 5.30159 5.80259 4.59375 4.93129C4.23683 5.55078 4.12864 6.28274 4.2911 6.97899C4.45356 7.67524 4.87452 8.28374 5.46875 8.68129C5.03038 8.66438 4.60216 8.54448 4.21875 8.33129V8.36254C4.21485 9.00994 4.43295 9.63911 4.83669 10.1452C5.24043 10.6513 5.80542 11.0037 6.4375 11.1438C6.02977 11.2535 5.60268 11.2705 5.1875 11.1938C5.37049 11.7459 5.7198 12.2279 6.18753 12.5737C6.65526 12.9194 7.21849 13.112 7.8 13.125C6.80576 13.9254 5.57006 14.3659 4.29375 14.375C4.06997 14.3686 3.84672 14.3498 3.625 14.3188C4.91685 15.1419 6.41825 15.5758 7.95 15.5688" fill="#564FB1"/>
</svg>
